<svg xmlns="http://www.w3.org/2000/svg" viewBox="0 0 16 16">
	<path fill="#54657d" d="M8.54 16h-.99a1.4 1.4 0 0 1-1.1-.46 1.51 1.51 0 0 1-.41-1.04v-.8a.95.95 0 0 0-.3-.12.53.53 0 0 1-.23-.09l-.59.5a1.54 1.54 0 0 1-2.2 0l-.71-.7a1.48 1.48 0 0 1-.37-.5 1.43 1.43 0 0 1-.13-.58A1.54 1.54 0 0 1 2 11.1l.61-.61q-.1-.14-.15-.25A.5.5 0 0 1 2.4 10h-.9A1.43 1.43 0 0 1 0 8.5V7.49a1.47 1.47 0 0 1 .4-1.1A1.5 1.5 0 0 1 1.5 6h.8a.95.95 0 0 0 .1-.28.38.38 0 0 1 .1-.21L2 4.89a1.73 1.73 0 0 1-.37-.52 1.38 1.38 0 0 1 0-1.17 1.75 1.75 0 0 1 .36-.51l.7-.7a1.6 1.6 0 0 1 2.22 0l.6.6a.46.46 0 0 1 .22-.18l.3-.12v-.8A1.47 1.47 0 0 1 6.44.4a1.5 1.5 0 0 1 1.1-.4h1a1.5 1.5 0 0 1 1.1.4 1.46 1.46 0 0 1 .4 1.1v.8a1.45 1.45 0 0 0 .3.09.4.4 0 0 1 .22.11l.6-.51a1.6 1.6 0 0 1 2.2 0l.7.7a1.6 1.6 0 0 1 .02 2.2l-.61.6.15.25a.51.51 0 0 1 .06.25h.8a1.42 1.42 0 0 1 1.1.44A1.5 1.5 0 0 1 16 7.5V8.5a1.41 1.41 0 0 1-.44 1.08 1.5 1.5 0 0 1-1.07.42h-.8a.96.96 0 0 0-.1.28.32.32 0 0 1-.11.21l.61.61a1.55 1.55 0 0 1 0 2.18l-.7.7a1.54 1.54 0 0 1-2.22 0l-.59-.58a2.17 2.17 0 0 0-.26.13.48.48 0 0 1-.26.05v.8a1.65 1.65 0 0 1-.4 1.19 1.45 1.45 0 0 1-1.1.43Zm-3.3-3.92.4.22a2.03 2.03 0 0 0 .5.23c.2.06.4.12.6.16l.4.1v1.6a.59.59 0 0 0 .13.33.43.43 0 0 0 .37.18h1.01a.53.53 0 0 0 .32-.14.45.45 0 0 0 .18-.38V12.8l.4-.1a2.33 2.33 0 0 0 .55-.2 2.4 2.4 0 0 1 .56-.2l.4-.2 1.1 1.2a.43.43 0 0 0 .33.16.3.3 0 0 0 .29-.16l.68-.68a.49.49 0 0 0 .17-.36.26.26 0 0 0-.17-.26l-1.2-1.1.21-.4a2.63 2.63 0 0 0 .24-.52c.06-.18.12-.38.16-.58l.1-.4h1.6a.56.56 0 0 0 .34-.14.43.43 0 0 0 .17-.35V7.49a.53.53 0 0 0-.14-.32.46.46 0 0 0-.38-.17h-1.6l-.09-.4a2.58 2.58 0 0 0-.2-.56 2.62 2.62 0 0 1-.2-.54l-.21-.4 1.2-1.22a.42.42 0 0 0 .17-.33.26.26 0 0 0-.16-.26l-.69-.7a.54.54 0 0 0-.35-.14.26.26 0 0 0-.26.14l-1.12 1.2-.4-.19a1.8 1.8 0 0 0-.51-.24l-.6-.15-.49-.12v-1.6a.49.49 0 0 0-.18-.32.5.5 0 0 0-.34-.17h-.99a.5.5 0 0 0-.34.17.48.48 0 0 0-.18.32v1.6l-.4.11a2.67 2.67 0 0 0-.55.19 4.24 4.24 0 0 1-.56.2l-.28.29-1.1-1.2a.54.54 0 0 0-.36-.14.27.27 0 0 0-.26.15l-.8.7a.42.42 0 0 0-.16.32.3.3 0 0 0 .16.28l1.2 1.1-.18.5a1.76 1.76 0 0 0-.25.51l-.17.59-.2.3h-1.6a.5.5 0 0 0-.34.17.49.49 0 0 0-.18.32v1a.49.49 0 0 0 .18.32.5.5 0 0 0 .34.19h1.6l.1.4a2.25 2.25 0 0 0 .2.55 2.27 2.27 0 0 1 .2.55l.2.4-1.2 1.1a.23.23 0 0 0-.1.15 1.32 1.32 0 0 0 0 .15.83.83 0 0 0 0 .14.33.33 0 0 0 .1.17l.7.68a.5.5 0 0 0 .35.16.26.26 0 0 0 .26-.16ZM8 11a2.86 2.86 0 0 1-2.13-.9A2.92 2.92 0 0 1 5 8a3 3 0 0 1 6 0 2.92 2.92 0 0 1-.87 2.11A2.86 2.86 0 0 1 8 11Zm0-5a2 2 0 0 0-1.99 2 1.95 1.95 0 0 0 .59 1.43 1.98 1.98 0 0 0 2.8 0A1.95 1.95 0 0 0 10 8a2 2 0 0 0-2-2Z"/>
</svg>
