<svg xmlns="http://www.w3.org/2000/svg" width="16" height="16" viewBox="0 0 16 16" fill="none">
  <path fill-rule="evenodd" clip-rule="evenodd" d="M12.7899 4.22458C13.07 3.94444 13.07 3.49025 12.7899 3.21011C12.5098 2.92996 12.0556 2.92996 11.7754 3.21011L8 6.98552L4.22458 3.21011C3.94444 2.92996 3.49025 2.92996 3.21011 3.21011C2.92996 3.49025 2.92996 3.94444 3.21011 4.22458L6.98552 8L3.21011 11.7754C2.92996 12.0556 2.92996 12.5098 3.21011 12.7899C3.49025 13.07 3.94444 13.07 4.22458 12.7899L8 9.01448L11.7754 12.7899C12.0556 13.07 12.5098 13.07 12.7899 12.7899C13.07 12.5098 13.07 12.0556 12.7899 11.7754L9.01448 8L12.7899 4.22458Z" fill="#CD2C0B"/>
</svg>