<svg xmlns="http://www.w3.org/2000/svg" width="16" height="16" viewBox="0 0 16 16" fill="none">
  <path d="M7.16158 5.39591C7.16158 4.93476 7.53543 4.56091 7.99658 4.56091H8.00325C8.46441 4.56091 8.83825 4.93476 8.83825 5.39591C8.83825 5.85707 8.46441 6.23091 8.00325 6.23091H7.99658C7.53543 6.23091 7.16158 5.85707 7.16158 5.39591Z" fill="#D2310D"/>
  <path d="M7.99971 6.95357C8.46087 6.95397 8.83438 7.32814 8.83398 7.7893L8.83154 10.6055C8.83114 11.0666 8.45698 11.4402 7.99582 11.4398C7.53466 11.4394 7.16114 11.0652 7.16154 10.604L7.16399 7.78785C7.16439 7.32669 7.53855 6.95317 7.99971 6.95357Z" fill="#D2310D"/>
  <path fill-rule="evenodd" clip-rule="evenodd" d="M7.99991 1.5C11.5893 1.5 14.4991 4.40978 14.4991 7.99918C14.4991 11.5886 11.5893 14.4984 7.99991 14.4984C4.41051 14.4984 1.50073 11.5886 1.50073 7.99918C1.50073 4.40978 4.41051 1.5 7.99991 1.5ZM13.1591 7.99918C13.1591 5.14984 10.8493 2.84 7.99991 2.84C5.15058 2.84 2.84073 5.14984 2.84073 7.99918C2.84073 10.8485 5.15058 13.1584 7.99991 13.1584C10.8493 13.1584 13.1591 10.8485 13.1591 7.99918Z" fill="#D2310D"/>
</svg>