<svg width="100" height="100" viewBox="0 0 100 100" fill="none" xmlns="http://www.w3.org/2000/svg">
<g id="Ilustration Blankslate | Success">
<path id="shape" d="M36.3857 53.1599L45.4617 62.2358L63.6135 44.084" stroke="#0D2E4E" stroke-width="2" stroke-linecap="round" stroke-linejoin="round"/>
<path id="Subtract" fill-rule="evenodd" clip-rule="evenodd" d="M80.3877 52.1606C80.3877 68.943 66.7829 82.5479 50.0005 82.5479C41.9113 82.5479 34.5603 79.387 29.1153 74.2331L27.2169 74.5642C27.0584 74.5918 26.9131 74.6562 26.7899 74.7483C32.6736 80.7932 40.8986 84.5479 50.0005 84.5479C67.8874 84.5479 82.3877 70.0476 82.3877 52.1606C82.3877 34.2737 67.8874 19.7734 50.0005 19.7734C32.1135 19.7734 17.6133 34.2737 17.6133 52.1606C17.6133 57.4032 18.8589 62.3548 21.0704 66.7357L21.685 63.211C20.3474 59.7862 19.6133 56.0592 19.6133 52.1606C19.6133 35.3783 33.2181 21.7734 50.0005 21.7734C66.7829 21.7734 80.3877 35.3783 80.3877 52.1606Z" fill="#0D2E4E"/>
<path id="Star 1" d="M22.6269 57.8093C22.8195 56.705 24.4046 56.705 24.5972 57.8093L26.4035 68.1674C26.476 68.5829 26.8014 68.9083 27.2169 68.9807L37.575 70.7871C38.6793 70.9797 38.6793 72.5648 37.575 72.7573L27.2169 74.5637C26.8014 74.6361 26.476 74.9615 26.4035 75.377L24.5972 85.7352C24.4046 86.8395 22.8195 86.8395 22.6269 85.7352L20.8206 75.377C20.7481 74.9615 20.4228 74.6361 20.0073 74.5637L9.6491 72.7573C8.54482 72.5648 8.54482 70.9797 9.6491 70.7871L20.0073 68.9807C20.4228 68.9083 20.7481 68.5829 20.8206 68.1674L22.6269 57.8093Z" stroke="#0D2E4E" stroke-width="1.64"/>
<path id="Star 2" d="M76.1987 7.6491C76.3913 6.54482 77.9764 6.54482 78.169 7.6491L78.9662 12.2209C79.0387 12.6364 79.3641 12.9618 79.7796 13.0342L84.3514 13.8315C85.4557 14.0241 85.4557 15.6092 84.3514 15.8018L79.7796 16.5991C79.3641 16.6715 79.0387 16.9969 78.9662 17.4124L78.169 21.9842C77.9764 23.0885 76.3913 23.0885 76.1987 21.9842L75.4014 17.4124C75.329 16.9969 75.0036 16.6715 74.5881 16.5991L70.0163 15.8018C68.912 15.6092 68.912 14.0241 70.0163 13.8315L74.5881 13.0342C75.0036 12.9618 75.329 12.6364 75.4014 12.2209L76.1987 7.6491Z" stroke="#0D2E4E" stroke-width="1.64"/>
<path id="Star 3" d="M91.3855 27.985L91.5587 28.9782C91.7036 29.8092 92.3544 30.4599 93.1854 30.6049L94.1786 30.7781L93.1854 30.9513C92.3544 31.0962 91.7036 31.7469 91.5587 32.578L91.3855 33.5712L91.2123 32.578C91.0674 31.7469 90.4166 31.0962 89.5856 30.9513L88.5924 30.7781L89.5856 30.6049C90.4166 30.4599 91.0674 29.8092 91.2123 28.9782L91.3855 27.985Z" stroke="#0D2E4E" stroke-width="2"/>
</g>
</svg>
